<svg xmlns="http://www.w3.org/2000/svg" viewBox="0 0 267.04 278.88" width="25px" height="25px"><defs><style>.cls-1{fill:#fff;}</style></defs><g id="Capa_2" data-name="Capa 2"><g id="Capa_1-2" data-name="Capa 1"><path class="cls-1" d="M30.36,125A103.45,103.45,0,0,0,28,152.86c.13,2.32.28,4.63.5,7l.68,7c.2,2.33.57,4.63.85,6.95l.46,3.45c.18,1.15.4,2.29.56,3.44.37,2.29.39,4.61.65,6.89s.47,4.59.85,6.86.72,4.53,1.14,6.78.93,4.48,1.44,6.71a107.91,107.91,0,0,0,9.29,25.36,78,78,0,0,0,7.14,11.21c1.42,1.68,2.74,3.46,4.31,5,.77.79,1.48,1.63,2.3,2.37l2.43,2.22A72.55,72.55,0,0,0,83.41,267.3c2.07.84,4.24,1.44,6.38,2.13l3.27.88,1.63.43,1.67.36,3.32.72,3.36.59c1.12.22,2.25.39,3.39.53l3.39.48a235.37,235.37,0,0,0,27.68,1.46,228.45,228.45,0,0,0,27.65-1.56,115.58,115.58,0,0,0,26.36-6.26c2.12-.73,4.11-1.72,6.16-2.59,2-1,4-2,5.85-3.14.93-.59,1.93-1.08,2.81-1.73l2.72-1.87c.91-.63,1.74-1.36,2.61-2l1.29-1c.42-.35.81-.73,1.22-1.1l2.43-2.23,2.27-2.39a30.08,30.08,0,0,0,2.17-2.48c.69-.86,1.42-1.69,2.08-2.57,1.26-1.82,2.64-3.55,3.75-5.48l1.74-2.84,1.56-3a107.86,107.86,0,0,0,9.13-25.44l1.41-6.71,1.12-6.8q.46-3.42.83-6.86c.14-1.14.17-2.3.25-3.45s.23-2.3.41-3.44.4-2.29.55-3.44l.46-3.47c.28-2.3.64-4.63.83-6.93l.68-6.94c0-.42,0-1.07.06-1.63v-1.73c0-1.16,0-2.33,0-3.49a112.08,112.08,0,0,0-1-13.94c-.62-4.61-1.54-9.23-3.85-13.4a26,26,0,0,1,3.91,6,60.89,60.89,0,0,1,2.69,6.73,116.09,116.09,0,0,1,3.57,14c.24,1.18.45,2.37.65,3.56l.28,1.8c.09.62.19,1.15.24,1.91l.47,7.23c.18,2.42.21,4.81.29,7.23l.11,3.61c0,1.21,0,2.42,0,3.63a49.77,49.77,0,0,1-.63,7.21c-.36,2.4-.59,4.81-.93,7.2l-1.19,7.19L249,209.47a118,118,0,0,1-10,27.76l-1.75,3.31-2,3.2c-1.25,2.17-2.82,4.15-4.25,6.21-.75,1-1.59,2-2.38,2.94a35.27,35.27,0,0,1-2.49,2.85l-2.61,2.74-2.79,2.57c-.47.42-.93.86-1.41,1.26l-1.48,1.18c-1,.78-2,1.6-3,2.33L211.81,268c-1,.74-2.14,1.32-3.21,2-2.14,1.35-4.41,2.4-6.64,3.56-2.29,1-4.55,2.09-6.9,2.9a124.78,124.78,0,0,1-28.65,6.84,238.09,238.09,0,0,1-28.9,1.64,246.27,246.27,0,0,1-28.9-1.54l-3.62-.5c-1.21-.16-2.41-.34-3.62-.57l-3.61-.64-3.6-.77-1.8-.4L90.57,280,87,279c-2.36-.76-4.74-1.42-7.06-2.35A82.7,82.7,0,0,1,54,261.59L51.23,259c-.94-.85-1.76-1.81-2.64-2.71-1.8-1.79-3.32-3.8-4.94-5.73a88.26,88.26,0,0,1-8.07-12.66A117.86,117.86,0,0,1,25.4,210.22c-.54-2.38-1-4.77-1.53-7.15s-.81-4.79-1.21-7.19-.61-4.8-1-7.2a51.31,51.31,0,0,1-.7-7.21c0-1.21,0-2.42,0-3.62l.11-3.62c.09-2.41.1-4.82.27-7.21.34-4.79.5-9.57,1.18-14.39a103.59,103.59,0,0,1,2.85-14.23A93.26,93.26,0,0,1,30.36,125Z"/><path class="cls-1" d="M178.84,68.88c20.53,0,37,1.92,49,5.71,10.22,3.24,14.9,7.16,17,9.87,2.85,3.64,2.31,6.74,2.19,7.26L241.39,110c-13.85-13.87-41-31.27-91.77-35.54-4.9-.41-9.83-.62-14.64-.62a159.38,159.38,0,0,0-35.2,3.88,125.6,125.6,0,0,1,23.83-5.35h.12l.11,0a501.7,501.7,0,0,1,55-3.49m0-10a506.88,506.88,0,0,0-56.12,3.56s-75.45,6.77-95.59,69.44c0,0,36.4-48,107.85-48q6.69,0,13.8.59c80.56,6.77,96.35,47.42,96.35,47.42l11.46-37.26s12.05-35.74-77.75-35.74Z"/><path class="cls-1" d="M257.13,94.88A19.64,19.64,0,0,0,257,78.41c-2.43-4.93-6.89-8.48-11.75-11a68.72,68.72,0,0,0-15.74-5.65,127.56,127.56,0,0,0-16.83-2.5,269.17,269.17,0,0,0-68.77-.5,218.62,218.62,0,0,0-33.67,6.73A154.77,154.77,0,0,0,78.7,78.17,104.16,104.16,0,0,0,52.22,98.52a84.54,84.54,0,0,0-17.17,28.16L19.27,170l6.13-45.7C27.12,111.48,29,98.73,31.14,86c1.08-6.39,2.21-12.77,3.51-19.16l1-4.8,1.12-4.81a27.09,27.09,0,0,1,5.65-10.35,62.56,62.56,0,0,1,7.38-7.44c2.58-2.23,5.24-4.3,8-6.24A181.74,181.74,0,0,1,74.58,22.59,239,239,0,0,1,110.45,6.28,129,129,0,0,1,129.81.89,44.89,44.89,0,0,1,140.66.07a21.39,21.39,0,0,1,3.14.45l2.38.56,4.74,1.15Q169.84,7,188.39,13q9.11,3.58,18,7.73a194.59,194.59,0,0,1,17.42,9.08,94.47,94.47,0,0,1,16,11.57A36.35,36.35,0,0,1,246.14,49a15.47,15.47,0,0,1,2.49,9.39,15.1,15.1,0,0,0-3.69-8.55,34.28,34.28,0,0,0-7-6.25,90.86,90.86,0,0,0-16.64-8.94A273.9,273.9,0,0,0,185.2,22.58c-12-4.08-24.33-7.55-36.69-10.64l-4.64-1.13-2.32-.54a10.66,10.66,0,0,0-1.63-.23,35.48,35.48,0,0,0-8.34.69,119.61,119.61,0,0,0-17.8,5A228.41,228.41,0,0,0,79.46,31.32a168.8,168.8,0,0,0-15.86,10,72.63,72.63,0,0,0-13.44,11.9,17.62,17.62,0,0,0-3.67,6.38l-1.06,4.58-1,4.65C43.19,75,42.07,81.31,41,87.61c-2.12,12.61-4,25.33-5.7,38l-9.65-2.36a94.57,94.57,0,0,1,19.2-31.5,114.18,114.18,0,0,1,29-22.35,165.14,165.14,0,0,1,33.56-13.57,227.57,227.57,0,0,1,35.22-7,277.34,277.34,0,0,1,35.73-2c6,0,11.94.28,17.9.7s12,.67,17.85,2.09a134.8,134.8,0,0,1,17.52,4.9c1.45.52,2.9,1.1,4.28,1.72s2.79,1.26,4.17,1.94a55.77,55.77,0,0,1,7.93,4.77A38.58,38.58,0,0,1,255,69.2a24.26,24.26,0,0,1,4.64,8.18A20.7,20.7,0,0,1,257.13,94.88Z"/><path class="cls-1" d="M24.63,146.38c-1.47-1.34-2.9-2.6-4.25-3.8s-2.73-2.32-4.05-3.26a1.89,1.89,0,0,1-.51-.94,5.46,5.46,0,0,0-.51-.88,13.25,13.25,0,0,0-1.1-1.43,4.3,4.3,0,0,0-.85-.74c-.18-.1-.08,0,.17,0s.37-.08.21,0a2.76,2.76,0,0,0-.6.56A11.52,11.52,0,0,0,11.63,139a33.51,33.51,0,0,0-1.54,8.73,47.17,47.17,0,0,0,.34,9.22,27.43,27.43,0,0,0,.9,4.23,9.15,9.15,0,0,0,1.24,2.71s0,0,0,0-.07-.09-.12-.09-.17-.11-.29-.15l-.17,0s0,0,0,0a1.35,1.35,0,0,0,.49,0,4.23,4.23,0,0,0,1-.4,3.12,3.12,0,0,0,.65-.42c.2-.21.36-.47.72-.5a20,20,0,0,0,4.66-1.41c.83-.33,1.65-.72,2.48-1.14s1.68-.85,2.56-1.32a22.6,22.6,0,0,1-.26,3c-.17,1-.38,1.94-.65,2.92a20.52,20.52,0,0,1-2.57,5.83,2.24,2.24,0,0,1-.59.6c-.24.15-.5.27-.75.41-.51.28-1,.62-1.55.9a13.46,13.46,0,0,1-3.76,1.37,11.15,11.15,0,0,1-4.6,0l-.58-.13c-.21-.06-.51-.18-.76-.27a7.34,7.34,0,0,1-1.43-.72A8.27,8.27,0,0,1,6,171.36c-.31-.28-.61-.58-.9-.88A15.07,15.07,0,0,1,3,167.14a26.17,26.17,0,0,1-1.18-3.06,38.27,38.27,0,0,1-1.24-5.77,56.42,56.42,0,0,1-.42-11.23,43,43,0,0,1,2.06-11.39,21,21,0,0,1,3.13-6,12.67,12.67,0,0,1,3.18-2.86,9.65,9.65,0,0,1,5-1.51,9.61,9.61,0,0,1,5,1.45,13.88,13.88,0,0,1,3.06,2.55,20.79,20.79,0,0,1,2,2.61c.32.44.54.88.87,1.28a3.18,3.18,0,0,1,.75,1.29,30,30,0,0,1,.27,6A29.19,29.19,0,0,1,24.63,146.38Z"/><path class="cls-1" d="M250.07,150.7a31.44,31.44,0,0,1-.59-11.89,3.18,3.18,0,0,1,.75-1.29c.33-.4.55-.85.87-1.28a20.79,20.79,0,0,1,2-2.61,13.88,13.88,0,0,1,3.06-2.55,9.24,9.24,0,0,1,10,.06A12.67,12.67,0,0,1,269.4,134a21,21,0,0,1,3.13,6,43.42,43.42,0,0,1,2.06,11.39,56.42,56.42,0,0,1-.42,11.23,38.27,38.27,0,0,1-1.24,5.77,26.17,26.17,0,0,1-1.18,3.06,15.07,15.07,0,0,1-2.14,3.34c-.29.3-.59.6-.9.88a9.15,9.15,0,0,1-1.14.86,7.34,7.34,0,0,1-1.43.72c-.25.09-.55.21-.76.27l-.58.13a11.15,11.15,0,0,1-4.6,0,13.46,13.46,0,0,1-3.76-1.37c-.55-.28-1-.62-1.55-.9-.25-.14-.51-.26-.75-.41a2.24,2.24,0,0,1-.59-.6,20.52,20.52,0,0,1-2.57-5.83c-.27-1-.48-2-.65-2.92a22.6,22.6,0,0,1-.26-3c.88.47,1.7.92,2.56,1.32s1.65.81,2.48,1.14a19.84,19.84,0,0,0,4.66,1.41c.36,0,.52.29.72.5a3.12,3.12,0,0,0,.65.42,4.23,4.23,0,0,0,1,.4,1.35,1.35,0,0,0,.49,0h0l-.17,0c-.12,0-.24.15-.29.15s-.12.12-.12.09,0,0,0,0a9.15,9.15,0,0,0,1.24-2.71,27.43,27.43,0,0,0,.9-4.23,47.17,47.17,0,0,0,.34-9.22,33.51,33.51,0,0,0-1.54-8.73,11.52,11.52,0,0,0-1.51-3.07,3,3,0,0,0-.6-.56c-.16-.09,0,0,.21,0s.35-.08.17,0a4.3,4.3,0,0,0-.85.74,13.25,13.25,0,0,0-1.1,1.43,5.46,5.46,0,0,0-.51.88,1.83,1.83,0,0,1-.52.94c-1.31.94-2.66,2.06-4,3.26S251.54,149.36,250.07,150.7Z"/></g></g></svg>